<svg width="44" height="44" viewBox="0 0 44 44" fill="none" xmlns="http://www.w3.org/2000/svg">
  <rect x="6" y="6" width="32" height="32" rx="16" fill="#F5F5F5"/>
  <path d="M22 12C16.48 12 12 16.48 12 22C12 27.52 16.48 32 22 32C27.52 32 32 27.52 32 22C32 16.48 27.52 12 22 12ZM22 14.5C23.38 14.5 24.5 15.62 24.5 17C24.5 18.38 23.38 19.5 22 19.5C20.62 19.5 19.5 18.38 19.5 17C19.5 15.62 20.62 14.5 22 14.5ZM22 29.7C19.25 29.7 16.82 28.37 15.5 26.27C15.53 24.14 19.66 22.95 22 22.95C24.33 22.95 28.47 24.14 28.5 26.27C27.18 28.37 24.75 29.7 22 29.7Z" fill="#9097A5"/>
</svg> 